# xmcd
#
# Track frame offsets:
#   150
#   14840
#   30790
#   43700
#   55390
#   69640
#   82465
#   93902
#   109877
#   123052
#   134022
#   147612
#   163264
#   175762
#   187852
#
# Disc length: 2712 seconds
#
# Revision: 0
# Processed by: cddbd v1.5.2PL0 Copyright (c) Steve Scherf et al.
# Submitted via: uFREEDB ActiveX Control 1.5
#
DISCID=d90a960f
DTITLE=14 - 014
DYEAR=1900
DGENRE=Alternative
TTITLE0=141
TTITLE1=142
TTITLE2=143
TTITLE3=144
TTITLE4=145
TTITLE5=146
TTITLE6=147
TTITLE7=148
TTITLE8=149
TTITLE9=1410
TTITLE10=1411
TTITLE11=1412
TTITLE12=1413
TTITLE13=1414
TTITLE14=1415
EXTD=
EXTT0=
EXTT1=
EXTT2=
EXTT3=
EXTT4=
EXTT5=
EXTT6=
EXTT7=
EXTT8=
EXTT9=
EXTT10=
EXTT11=
EXTT12=
EXTT13=
EXTT14=
PLAYORDER=
